<svg width="574" height="358" viewBox="0 0 574 358" fill="none" xmlns="http://www.w3.org/2000/svg">
<path d="M440.46 178.511C440.46 260.002 371.706 326.098 286.851 326.098C201.996 326.098 133.242 260.002 133.242 178.511C133.242 97.0194 201.996 30.9238 286.851 30.9238C371.706 30.9238 440.46 97.0194 440.46 178.511Z" stroke="black"/>
<path d="M454.436 178.511C454.436 267.61 379.263 339.874 286.491 339.874C193.719 339.874 118.546 267.61 118.546 178.511C118.546 89.4114 193.719 17.1483 286.491 17.1483C379.263 17.1483 454.436 89.4114 454.436 178.511Z" stroke="black"/>
<path d="M233.092 87.9859L236.164 90.4459L239.748 97.3336L260.228 88.9699L285.827 87.9859L282.755 108.649L277.635 113.569L282.755 126.853L294.019 121.441H305.283L316.547 117.997L318.594 108.649L310.915 86.51L320.642 77.1623L330.882 79.1302L343.682 67.3226L356.482 69.7826L360.066 81.5902L358.018 86.51L376.961 94.8737L394.881 90.9378L381.569 116.029V123.901L390.273 140.136L364.162 158.832L407.681 164.735L435.84 177.035L439.936 189.335L428.16 188.351L398.977 200.65L377.473 191.303L368.77 175.067L349.314 184.415L353.41 200.65L349.314 202.618L352.386 211.474L360.066 212.95L368.77 247.389L360.066 281.828L335.49 266.576L328.322 244.929L319.618 200.65L316.547 188.351L307.331 184.415L296.067 192.778L281.731 191.303L275.587 185.891H264.324L267.907 192.778L270.979 224.265L260.74 264.608L243.332 243.453H238.212L236.164 256.736L216.708 244.929L214.66 216.394L221.828 204.094L227.46 200.65L225.412 189.827L209.541 181.955L198.277 184.415L156.806 171.131L134.278 160.308L160.389 146.04L178.821 142.104L196.741 144.564L213.636 150.96L214.66 135.216L221.828 102.745L225.412 95.8577H233.092V87.9859Z" fill="#B45B01" stroke="black"/>
<path d="M334.978 84.5421L323.714 86.0181V95.8577L319.619 99.7936L321.666 111.109L332.418 119.473L345.218 129.313L352.386 123.901L349.826 115.045L341.634 109.633L339.074 90.4459L334.978 84.5421Z" fill="#95DDB8" stroke="black"/>
<path d="M236.164 143.58L244.356 116.029L257.156 127.345L251.524 136.692V141.12L265.347 143.58L273.539 148.008L268.931 152.436H254.596L244.356 155.388L247.94 160.308L238.724 170.639L249.988 184.415L244.356 187.367L236.164 184.415H226.436L219.78 175.559L231.044 168.671L214.66 166.211L217.22 158.832H231.044L238.724 148.008L236.164 143.58Z" fill="#95DDB8" stroke="black"/>
<path d="M214.3 48.1353L232.732 87.494L236.316 90.4459L239.9 97.3337L260.38 88.478L285.979 87.494L282.907 108.649L277.787 113.569L282.907 126.853L294.171 121.441L296.731 115.537L289.563 74.2105L230.172 41.2476L214.3 48.1353Z" fill="#C64824" stroke="black"/>
<path d="M329.498 36.8197L320.283 77.1624L311.067 86.5101L318.747 108.649L316.699 117.997L305.435 121.441H294.171L296.731 115.537L289.563 74.2105L299.291 51.5792L310.555 32.3918L329.498 36.8197Z" fill="#52AEC7" stroke="black"/>
<path d="M241.948 37.3116L230.172 41.2474L289.563 74.2103L299.291 51.5791L310.555 32.3917L300.827 31.4078L289.563 30.9158L275.227 31.4078L263.963 32.3917L253.724 34.3597L241.948 37.3116Z" fill="#D4BD3D" stroke="black"/>
<path d="M351.514 44.1993L343.834 67.3226L331.034 79.1302L320.282 77.1622L329.498 36.8196L339.226 39.7715L351.514 44.1993Z" fill="#B8AA92" stroke="black"/>
<path d="M404.761 84.0501L395.033 90.9379L377.113 94.8737L358.17 86.51L360.218 81.5902L356.634 69.7826L343.834 67.3227L351.514 44.6914L357.146 47.1513L365.338 51.5792L374.041 56.991L385.817 65.3547L394.009 72.7345L404.761 84.0501Z" fill="#BAC9FF" stroke="black"/>
<path d="M411.417 91.9218L404.761 84.05L395.033 90.9378L381.721 116.029V123.901L390.425 139.644L403.737 126.361L424.729 113.569L418.585 102.253L411.417 91.9218Z" fill="#C64824" stroke="black"/>
<path d="M435.992 177.035L440.088 189.335L440.6 177.527L440.088 167.687L438.552 155.388L435.992 143.58L432.92 132.264L427.801 119.473L424.729 113.569L403.737 126.361L390.425 140.136L364.314 158.832L407.833 164.735L435.992 177.035Z" fill="#D4BD3D" stroke="black"/>
<path d="M349.466 184.415L368.922 175.067L377.625 191.303L396.057 226.725L368.922 247.389L360.218 212.95L352.538 211.474L349.466 202.618L353.562 200.65L349.466 184.415Z" fill="#BBA888" stroke="black"/>
<path d="M399.129 200.65L377.625 191.302L396.057 226.725L425.752 241.977L431.896 227.709L435.48 216.394L438.552 202.618L440.088 189.335L428.312 188.351L399.129 200.65Z" fill="#52AEC7" stroke="black"/>
<path d="M425.752 241.977L396.057 226.725L368.921 247.389L360.218 281.828L375.577 299.047L386.329 291.175L398.617 279.86L409.881 267.068L419.609 252.8L425.752 241.977Z" fill="#BAC9FF" stroke="black"/>
<path d="M200.477 56.499L214.3 48.1353L233.244 87.9859V95.8577H225.564L221.98 102.745L214.812 135.216L213.788 150.96L187.165 104.221L182.045 70.2745L190.237 63.8787L200.477 56.499Z" fill="#BBA888" stroke="black"/>
<path d="M171.293 81.0983L182.045 70.7666L187.165 104.221L213.788 150.96L196.893 144.564L178.973 142.104L160.029 146.04L134.43 160.308L136.478 148.5L139.55 136.2L144.158 123.409L150.814 110.125L161.053 93.8898L171.293 81.0983Z" fill="#95DDB8" stroke="black"/>
<path d="M275.739 185.891H264.476L268.059 192.779L271.131 223.773L260.892 264.608L294.683 226.725L328.474 244.929L316.699 188.351L307.483 184.415L296.219 192.779L281.883 191.303L275.739 185.891Z" fill="#D4BD3D" stroke="black"/>
<path d="M300.315 263.624L294.683 226.725L328.474 244.929L335.642 266.576L360.218 281.828L375.577 299.047L360.218 308.395L344.346 315.282L328.986 320.202L300.315 263.624Z" fill="#95DDB8" stroke="black"/>
<path d="M260.892 264.608L294.683 227.217L300.315 263.624L307.483 277.892L278.811 301.999L239.388 274.448L236.316 256.736L238.364 243.453H243.484L260.892 264.608Z" fill="#52AEC7" stroke="black"/>
<path d="M278.811 301.999L307.483 277.892L328.986 320.202L324.89 321.678L314.651 323.646L306.459 325.122L294.683 326.106H281.883L270.619 325.122L278.811 301.999Z" fill="#C64824" stroke="black"/>
<path d="M236.316 256.736L216.86 244.929L188.701 292.159L205.085 303.475L219.42 311.347L237.34 318.234L255.772 323.154L270.619 325.122L278.811 301.999L239.388 274.448L236.316 256.736Z" fill="#B8AA92" stroke="black"/>
<path d="M221.98 204.094L227.612 200.65L225.564 189.827L192.797 211.474L152.862 250.833L163.613 267.068L176.413 281.336L188.701 292.159L216.86 244.929L214.812 216.394L221.98 204.094Z" fill="#D4BD3D" stroke="black"/>
<path d="M156.958 171.131L134.43 160.308L133.918 165.719L133.406 177.035V190.319L135.454 204.094L139.55 220.822L145.694 237.057L152.862 250.833L192.797 211.474L225.564 189.827L209.181 181.955L198.429 184.415L156.958 171.131Z" fill="#BBA888" stroke="black"/>
<path d="M573 227.412L450.865 201.005L452.391 188.291V178.022L573 178.511V227.412Z" fill="#BBA888" stroke="black"/>
<path d="M450.865 201.005L573 227.412V284.137L445.776 223.989L448.32 215.187L450.865 201.005Z" fill="#4D729C" stroke="black"/>
<path d="M573 332.549V284.137L445.776 223.989L442.722 233.28L573 332.549Z" fill="#BAC9FF" stroke="black"/>
<path d="M573 357H502.772L433.053 254.308L436.107 248.929L440.178 240.126L442.722 233.28L573 332.06V357Z" fill="#BBA888" stroke="black"/>
<path d="M427.964 263.11L433.053 254.308L502.772 357H448.829L421.349 272.89L427.964 263.11Z" fill="#C4C4C4" stroke="black"/>
<path d="M448.829 356.511L421.349 272.89L415.751 279.736L410.153 286.093L404.555 291.473L410.153 356.511H448.829Z" fill="#D9E3E1" stroke="black"/>
<path d="M410.153 357L404.555 291.962L399.975 296.363L394.886 300.764L390.306 357H410.153Z" fill="#BAC9FF" stroke="black"/>
<path d="M390.306 357L394.886 300.764L388.779 305.654L383.181 309.566L367.915 357H390.306Z" fill="#C4C4C4" stroke="black"/>
<path d="M367.915 357L383.181 309.566L379.619 312.011L373.512 315.923L367.406 319.346L346.541 357H367.915Z" fill="#D9E3E1" stroke="black"/>
<path d="M346.541 357L366.897 319.835L357.737 324.236L350.612 327.17L339.925 331.082L329.747 334.017L318.552 336.951L309.391 338.418L300.231 339.396L292.089 339.885H287V357H346.541Z" fill="#4D729C" stroke="black"/>
<path d="M573 129.172L450.865 155.29L452.391 167.865V178.022L573 177.538V129.172Z" fill="#BBA888" stroke="black"/>
<path d="M450.865 155.29L573 129.172V73.0664L445.776 132.557L448.32 141.263L450.865 155.29Z" fill="#4D729C" stroke="black"/>
<path d="M573 25.1834V73.0664L445.776 132.557L442.722 123.368L573 25.1834Z" fill="#BAC9FF" stroke="black"/>
<path d="M573 1.00003H502.772L433.053 102.57L436.107 107.89L440.178 116.596L442.722 123.368L573 25.667V1.00003Z" fill="#BBA888" stroke="black"/>
<path d="M427.964 93.8641L433.053 102.57L502.772 1.00008H448.829L421.349 84.1907L427.964 93.8641Z" fill="#C4C4C4" stroke="black"/>
<path d="M448.829 1.48368L421.349 84.1907L415.751 77.4193L410.153 71.1317L404.555 65.8113L410.153 1.48368H448.829Z" fill="#D9E3E1" stroke="black"/>
<path d="M410.153 0.999977L404.555 65.3276L399.975 60.9746L394.886 56.6216L390.306 0.999977H410.153Z" fill="#BAC9FF" stroke="black"/>
<path d="M390.306 0.99992L394.886 56.6216L388.779 51.7849L383.181 47.9156L367.915 0.99992H390.306Z" fill="#C4C4C4" stroke="black"/>
<path d="M367.915 0.999989L383.181 47.9156L379.619 45.4973L373.512 41.628L367.406 38.2423L346.541 0.999989H367.915Z" fill="#D9E3E1" stroke="black"/>
<path d="M346.541 1.00013L366.897 37.7588L357.737 33.4058L350.612 30.5038L339.925 26.6345L329.747 23.7325L318.552 20.8305L309.391 19.3795L300.231 18.4121L292.089 17.9285H287V1.00013H346.541Z" fill="#4D729C" stroke="black"/>
<path d="M1.00003 129.172L123.135 155.29L121.609 167.865V178.022L1.00003 177.538V129.172Z" fill="#BBA888" stroke="black"/>
<path d="M123.135 155.29L1.00005 129.172V73.0664L128.224 132.557L125.68 141.263L123.135 155.29Z" fill="#4D729C" stroke="black"/>
<path d="M1.00002 25.1834V73.0664L128.224 132.557L131.278 123.368L1.00002 25.1834Z" fill="#BAC9FF" stroke="black"/>
<path d="M0.999924 1.00003H71.2277L140.947 102.57L137.893 107.89L133.822 116.596L131.277 123.368L0.999924 25.667V1.00003Z" fill="#BBA888" stroke="black"/>
<path d="M146.036 93.8641L140.947 102.57L71.2278 1.00008H125.171L152.651 84.1907L146.036 93.8641Z" fill="#C4C4C4" stroke="black"/>
<path d="M125.171 1.48368L152.651 84.1907L158.249 77.4193L163.847 71.1317L169.445 65.8113L163.847 1.48368H125.171Z" fill="#D9E3E1" stroke="black"/>
<path d="M163.847 0.999977L169.445 65.3276L174.025 60.9746L179.114 56.6216L183.694 0.999977H163.847Z" fill="#BAC9FF" stroke="black"/>
<path d="M183.694 0.99992L179.114 56.6216L185.221 51.7849L190.819 47.9156L206.085 0.99992H183.694Z" fill="#C4C4C4" stroke="black"/>
<path d="M206.085 0.999989L190.819 47.9156L194.381 45.4973L200.488 41.628L206.594 38.2423L227.459 0.999989H206.085Z" fill="#D9E3E1" stroke="black"/>
<path d="M227.459 1.00013L207.103 37.7588L216.263 33.4058L223.388 30.5038L234.075 26.6345L244.253 23.7325L255.448 20.8305L264.609 19.3795L273.769 18.4121L281.911 17.9285H287V1.00013H227.459Z" fill="#4D729C" stroke="black"/>
<path d="M1.00003 227.412L123.135 201.005L121.609 188.291V178.022L1.00003 178.511V227.412Z" fill="#BBA888" stroke="black"/>
<path d="M123.135 201.005L1.00005 227.412V284.137L128.224 223.989L125.68 215.187L123.135 201.005Z" fill="#4D729C" stroke="black"/>
<path d="M1.00002 332.549V284.137L128.224 223.989L131.278 233.28L1.00002 332.549Z" fill="#BAC9FF" stroke="black"/>
<path d="M0.999924 357H71.2277L140.947 254.308L137.893 248.929L133.822 240.126L131.277 233.28L0.999924 332.06V357Z" fill="#BBA888" stroke="black"/>
<path d="M146.036 263.11L140.947 254.308L71.2278 357H125.171L152.651 272.89L146.036 263.11Z" fill="#C4C4C4" stroke="black"/>
<path d="M125.171 356.511L152.651 272.89L158.249 279.736L163.847 286.093L169.445 291.473L163.847 356.511H125.171Z" fill="#D9E3E1" stroke="black"/>
<path d="M163.847 357L169.445 291.962L174.025 296.363L179.114 300.764L183.694 357H163.847Z" fill="#BAC9FF" stroke="black"/>
<path d="M183.694 357L179.114 300.764L185.221 305.654L190.819 309.566L206.085 357H183.694Z" fill="#C4C4C4" stroke="black"/>
<path d="M206.085 357L190.819 309.566L194.381 312.011L200.488 315.923L206.594 319.346L227.459 357H206.085Z" fill="#D9E3E1" stroke="black"/>
<path d="M227.459 357L207.103 319.835L216.263 324.236L223.388 327.17L234.075 331.082L244.253 334.017L255.448 336.951L264.609 338.418L273.769 339.396L281.911 339.885H287V357H227.459Z" fill="#4D729C" stroke="black"/>
</svg>
