<svg width="143" height="143" viewBox="0 0 143 143" fill="none" xmlns="http://www.w3.org/2000/svg">
<rect width="143" height="143" fill="#A4AC9D"/>
<path d="M73.6253 103.249L74.7411 99.2384C75.1829 97.6504 77.262 97.2726 78.2341 98.6037C78.4075 98.841 78.6316 99.0366 78.8903 99.1762L86.5315 103.3C87.3504 103.742 88.366 103.56 88.9814 102.862L89.7709 101.967C90.0103 101.695 90.3189 101.494 90.6637 101.384L92.2694 100.872C92.6564 100.749 93.0719 100.746 93.4604 100.865L96.46 101.78C96.93 101.924 97.4363 101.889 97.8824 101.683L101.456 100.032C102.535 99.5344 102.944 98.2116 102.335 97.1916L99.2228 91.9779C99.0565 91.6993 98.7843 91.5001 98.4685 91.4258C97.8389 91.2776 97.4405 90.6564 97.5686 90.0224L97.7014 89.3649C97.8373 88.6924 98.3268 88.1462 98.9805 87.9379L100.039 87.6006C100.435 87.4742 100.783 87.2272 101.032 86.894L110.168 74.6966C111.134 73.407 110.256 71.5631 108.646 71.4992L92.7203 70.8671C92.4878 70.8579 92.2554 70.8893 92.0337 70.96L89.6384 71.7233C88.586 72.0588 87.461 71.4775 87.1255 70.4251L86.6917 69.064L84.9325 63.544C84.8908 63.4132 84.8357 63.2871 84.7682 63.1676L71.8864 40.3676C71.4205 39.543 70.4401 39.1583 69.5378 39.4459L69.3909 39.4927C68.7475 39.6977 68.251 40.2136 68.0708 40.8644L62.0744 62.5158L59.8656 69.3512C59.8259 69.4743 59.7982 69.6009 59.7828 69.7293L59.14 75.1164C59.0472 75.8947 58.5082 76.547 57.7614 76.785L50.8064 79.0017L35.7758 85.2572C35.543 85.354 35.3306 85.4941 35.1498 85.6699L34.9381 85.8758C33.8853 86.8996 34.2582 88.6711 35.6343 89.1837L42.216 91.6354L53.1122 97.4733C53.3329 97.5915 53.5738 97.6673 53.8224 97.6966L56.0452 97.9588C56.5789 98.0218 57.0648 98.2969 57.3935 98.7222L58.4901 100.141C58.7713 100.505 58.9185 100.955 58.9069 101.415L58.7571 107.346C58.7382 108.091 59.1469 108.781 59.8091 109.122C60.2667 109.358 60.7991 109.403 61.2895 109.247L69.9877 106.474C70.2212 106.4 70.4391 106.283 70.6304 106.13L72.9485 104.274C73.276 104.012 73.5128 103.653 73.6253 103.249Z" stroke="#C73A2A" stroke-width="2"/>
<path d="M63.7825 101.38L66.7766 98.4873C67.962 97.3422 69.9459 98.0699 70.1096 99.71C70.1388 100.002 70.233 100.285 70.3852 100.536L74.8837 107.963C75.3658 108.759 76.3332 109.117 77.2175 108.827L78.3518 108.455C78.6957 108.342 79.0638 108.325 79.4169 108.405L81.0604 108.777C81.4566 108.867 81.8161 109.075 82.091 109.374L84.2133 111.683C84.5458 112.045 84.9998 112.272 85.4888 112.32L89.4063 112.708C90.5884 112.825 91.6114 111.892 91.6032 110.704L91.5618 104.632C91.5596 104.308 91.4259 103.998 91.1913 103.774C90.7235 103.327 90.6948 102.59 91.1265 102.108L91.5742 101.609C92.032 101.098 92.7308 100.875 93.3999 101.026L94.4832 101.272C94.8891 101.364 95.3137 101.327 95.6977 101.166L109.754 95.2791C111.24 94.6567 111.418 92.6224 110.062 91.7516L96.6522 83.1372C96.4564 83.0115 96.2402 82.9208 96.0132 82.8694L93.5614 82.3139C92.4841 82.0699 91.8087 80.9987 92.0527 79.9214L92.3684 78.5282L93.6485 72.8778C93.6789 72.744 93.6953 72.6073 93.6977 72.47L94.1441 46.2864C94.1603 45.3395 93.51 44.511 92.5863 44.3018L92.436 44.2677C91.7774 44.1185 91.0879 44.3117 90.6028 44.7815L74.4628 60.4097L69.0952 65.1835C68.9986 65.2695 68.9105 65.3646 68.8322 65.4675L65.5485 69.7863C65.0741 70.4102 64.2789 70.6995 63.5145 70.5263L56.3952 68.9134L40.2673 66.6907C40.0175 66.6563 39.7634 66.6694 39.5185 66.7293L39.2316 66.7996C37.8052 67.1489 37.2291 68.865 38.1558 70.0043L42.5878 75.4527L49.0239 86.0067C49.1542 86.2204 49.3235 86.4078 49.523 86.559L51.3065 87.9114C51.7348 88.2361 52.0143 88.7195 52.0821 89.2526L52.3085 91.0319C52.3665 91.4881 52.2656 91.9504 52.0226 92.3409L48.8881 97.3786C48.4945 98.0112 48.4973 98.8131 48.8952 99.4429C49.1702 99.8781 49.6065 100.186 50.1085 100.3L59.0122 102.317C59.2512 102.371 59.4982 102.381 59.7407 102.346L62.6795 101.921C63.0948 101.86 63.4807 101.671 63.7825 101.38Z" stroke="#C73A2A" stroke-width="2"/>
</svg>
