<svg width="195" height="195" viewBox="0 0 195 195" fill="none" xmlns="http://www.w3.org/2000/svg">
<circle cx="97.9986" cy="97.5893" r="88.1291" stroke="black"/>
<circle cx="97.7902" cy="97.5906" r="96.3737" stroke="black"/>
<path d="M67.0804 43.4107L68.8471 44.8829L70.9082 49.0052L82.6862 43.9996L97.4086 43.4107L95.6419 55.7775L92.6974 58.722L95.6419 66.6722L102.12 63.4332H108.598L115.076 61.3721L116.253 55.7775L111.837 42.5273L117.431 36.9328L123.32 38.1106L130.681 31.0438L138.043 32.5161L140.104 39.5828L138.926 42.5273L149.821 47.533L160.126 45.1774L152.471 60.1943V64.9055L157.476 74.6223L142.459 85.8113L167.487 89.3447L183.682 96.7059L186.038 104.067L179.265 103.478L162.482 110.84L150.115 105.245L145.109 95.5282L133.92 101.123L136.276 110.84L133.92 112.017L135.687 117.317L140.104 118.201L145.109 138.812L140.104 159.424L125.97 150.296L121.848 137.34L116.842 110.84L115.076 103.478L109.775 101.123L103.298 106.128L95.053 105.245L91.5196 102.006H85.0417L87.1029 106.128L88.8696 124.973L82.9806 149.118L72.9693 136.457H70.0248L68.8471 144.407L57.658 137.34L56.4802 120.262L60.6025 112.901L63.8414 110.84L62.6636 104.362L53.5357 99.6504L47.0578 101.123L23.2075 93.1726L10.2517 86.6947L25.2686 78.1557L35.8688 75.8001L46.1745 77.2723L55.8913 81.1002L56.4802 71.6778L60.6025 52.2442L62.6636 48.1219H67.0804V43.4107Z" fill="#B1040F" stroke="black"/>
<path d="M125.675 41.3505L119.197 42.2338V48.1228L116.841 50.4784L118.019 57.2507L124.202 62.2563L131.564 68.1453L135.686 64.9064L134.214 59.6063L129.502 56.3674L128.03 44.8839L125.675 41.3505Z" fill="#6A6A31" stroke="black"/>
<path d="M68.8459 76.6859L73.557 60.1968L80.9183 66.9691L77.6793 72.5636V75.2137L85.6295 76.6859L90.3406 79.336L87.6906 81.986H79.446L73.557 83.7527L75.6182 86.6972L70.3181 92.8806L76.796 101.125L73.557 102.892L68.8459 101.125H63.2513L59.4235 95.8251L65.9014 91.7028L56.479 90.2306L57.9512 85.8138H65.9014L70.3181 79.336L68.8459 76.6859Z" fill="#6A6A31" stroke="black"/>
<path d="M56.2721 19.5614L66.8723 43.1173L68.9334 44.884L70.9945 49.0063L82.7725 43.7062L97.495 43.1173L95.7283 55.7786L92.7838 58.7231L95.7283 66.6732L102.206 63.4343L103.678 59.9009L99.5561 35.1672L65.4 15.4391L56.2721 19.5614Z" fill="#C64824" stroke="black"/>
<path d="M122.524 12.789L117.224 36.9338L111.924 42.5283L116.34 55.7785L115.163 61.373L108.685 63.4342H102.207L103.679 59.9008L99.5569 35.1671L105.151 21.6224L111.629 10.1389L122.524 12.789Z" fill="#52AEC7" stroke="black"/>
<path d="M72.1752 13.0846L65.4028 15.4401L99.5589 35.1682L105.153 21.6236L111.631 10.1401L106.037 9.55116L99.5589 9.25671L91.3143 9.55116L84.8365 10.1401L78.9475 11.3179L72.1752 13.0846Z" fill="#0F4D5A" stroke="black"/>
<path d="M135.186 17.2069L130.769 31.046L123.408 38.1128L117.225 36.935L122.525 12.7902L128.119 14.5569L135.186 17.2069Z" fill="#B8AA92" stroke="black"/>
<path d="M165.808 41.0559L160.213 45.1782L149.908 47.5338L139.013 42.5282L140.191 39.5837L138.13 32.5169L130.768 31.0447L135.185 17.5L138.424 18.9722L143.135 21.6223L148.141 24.8612L154.913 29.8669L159.624 34.2836L165.808 41.0559Z" fill="#87968C" stroke="black"/>
<path d="M169.636 45.7673L165.808 41.0562L160.214 45.1784L152.558 60.1953V64.9065L157.563 74.3289L165.219 66.3788L177.292 58.7231L173.758 51.9508L169.636 45.7673Z" fill="#C64824" stroke="black"/>
<path d="M183.768 96.7078L186.123 104.069L186.418 97.0022L186.123 91.1133L185.24 83.752L183.768 76.6853L182.001 69.9129L179.057 62.2573L177.29 58.7239L165.218 66.3796L157.562 74.6241L142.545 85.8132L167.573 89.3466L183.768 96.7078Z" fill="#0F4D5A" stroke="black"/>
<path d="M134.008 101.124L145.197 95.5297L150.203 105.246L160.803 126.447L145.197 138.814L140.191 118.202L135.775 117.319L134.008 112.019L136.364 110.841L134.008 101.124Z" fill="#BBA888" stroke="black"/>
<path d="M162.567 110.84L150.2 105.246L160.8 126.446L177.879 135.574L181.412 127.035L183.473 120.263L185.24 112.018L186.123 104.068L179.351 103.479L162.567 110.84Z" fill="#52AEC7" stroke="black"/>
<path d="M177.88 135.572L160.802 126.445L145.196 138.811L140.19 159.423L149.024 169.729L155.207 165.017L162.274 158.245L168.752 150.589L174.347 142.05L177.88 135.572Z" fill="#87968C" stroke="black"/>
<path d="M48.3226 24.5665L56.2727 19.5609L67.1673 43.4113V48.1225H62.7506L60.6894 52.2447L56.5671 71.6784L55.9782 81.1007L40.6669 53.1281L37.7224 32.8111L42.4336 28.9833L48.3226 24.5665Z" fill="#BBA888" stroke="black"/>
<path d="M31.5388 39.2906L37.7223 33.1072L40.6667 53.1297L55.9781 81.1024L46.2613 77.2745L35.9556 75.8023L25.061 78.1579L10.3385 86.6969L11.5163 79.6301L13.283 72.2689L15.933 64.6132L19.7609 56.6631L25.6498 46.9463L31.5388 39.2906Z" fill="#6A6A31" stroke="black"/>
<path d="M91.6042 102.005H85.1263L87.1875 106.127L88.9542 124.678L83.0652 149.117L102.499 126.444L121.932 137.339L115.16 103.477L109.86 101.122L103.382 106.127L95.1376 105.244L91.6042 102.005Z" fill="#0F4D5A" stroke="black"/>
<path d="M105.741 148.528L102.502 126.445L121.936 137.339L126.058 150.295L140.192 159.423L149.025 169.729L140.192 175.323L131.064 179.445L122.231 182.39L105.741 148.528Z" fill="#6A6A31" stroke="black"/>
<path d="M83.0674 149.119L102.501 126.741L105.74 148.53L109.862 157.069L93.3731 171.497L70.7005 155.008L68.9338 144.408L70.1116 136.458H73.0561L83.0674 149.119Z" fill="#52AEC7" stroke="black"/>
<path d="M93.3735 171.499L109.863 157.071L122.23 182.393L119.874 183.277L113.985 184.454L109.274 185.338L102.501 185.927H95.1402L88.6624 185.338L93.3735 171.499Z" fill="#C64824" stroke="black"/>
<path d="M68.9361 144.409L57.7471 137.342L41.5524 165.609L50.9747 172.381L59.2193 177.093L69.525 181.215L80.1252 184.159L88.6642 185.337L93.3754 171.498L70.7028 155.009L68.9361 144.409Z" fill="#B8AA92" stroke="black"/>
<path d="M60.6923 112.903L63.9312 110.842L62.7534 104.364L43.9087 117.32L20.9417 140.875L27.1251 150.592L34.4863 159.131L41.5531 165.609L57.7478 137.342L56.57 120.264L60.6923 112.903Z" fill="#0F4D5A" stroke="black"/>
<path d="M23.2953 93.174L10.3395 86.6962L10.0451 89.9351L9.75061 96.7074V104.658L10.9284 112.902L13.284 122.913L16.8174 132.63L20.9397 140.875L43.9067 117.319L62.7514 104.363L53.3291 99.6519L47.1456 101.124L23.2953 93.174Z" fill="#BBA888" stroke="black"/>
</svg>
