<svg width="195" height="194" viewBox="0 0 195 194" fill="none" xmlns="http://www.w3.org/2000/svg">
<circle cx="98.0006" cy="96.9695" r="88.1291" stroke="black"/>
<circle cx="97.7922" cy="96.9708" r="96.3737" stroke="black"/>
<path d="M67.0823 42.7908L68.849 44.2631L70.9101 48.3853L82.6881 43.3797L97.4106 42.7908L95.6439 55.1577L92.6994 58.1022L95.6439 66.0523L102.122 62.8133H108.6L115.077 60.7522L116.255 55.1577L111.839 41.9075L117.433 36.3129L123.322 37.4907L130.683 30.424L138.045 31.8962L140.106 38.963L138.928 41.9075L149.822 46.9131L160.128 44.5575L152.473 59.5744V64.2856L157.478 74.0024L142.461 85.1915L167.489 88.7249L183.684 96.0861L186.04 103.447L179.267 102.858L162.484 110.22L150.117 104.625L145.111 94.9083L133.922 100.503L136.278 110.22L133.922 111.397L135.689 116.698L140.106 117.581L145.111 138.192L140.106 158.804L125.972 149.676L121.85 136.72L116.844 110.22L115.077 102.858L109.777 100.503L103.3 105.508L95.055 104.625L91.5216 101.386H85.0437L87.1048 105.508L88.8715 124.353L82.9826 148.498L72.9713 135.837H70.0268L68.849 143.787L57.6599 136.72L56.4822 119.642L60.6044 112.281L63.8434 110.22L62.6656 103.742L53.5377 99.0306L47.0598 100.503L23.2094 92.5527L10.2537 86.0748L25.2706 77.5358L35.8707 75.1802L46.1764 76.6524L55.8933 80.4803L56.4822 71.0579L60.6044 51.6243L62.6656 47.502H67.0823V42.7908Z" fill="#4B644B" stroke="black"/>
<path d="M125.676 40.7306L119.199 41.6139V47.5029L116.843 49.8585L118.021 56.6308L124.204 61.6365L131.565 67.5254L135.688 64.2865L134.216 58.9864L129.504 55.7475L128.032 44.264L125.676 40.7306Z" fill="#D6D66D" stroke="black"/>
<path d="M68.8478 76.066L73.559 59.5769L80.9202 66.3492L77.6813 71.9438V74.5938L85.6314 76.066L90.3426 78.7161L87.6926 81.3661H79.448L73.559 83.1328L75.6201 86.0773L70.3201 92.2607L76.7979 100.505L73.559 102.272L68.8478 100.505H63.2533L59.4254 95.2052L65.9033 91.0829L56.481 89.6107L57.9532 85.194H65.9033L70.3201 78.7161L68.8478 76.066Z" fill="#D6D66D" stroke="black"/>
<path d="M56.274 18.9415L66.8742 42.4974L68.9354 44.2641L70.9965 48.3864L82.7745 43.0863L97.4969 42.4974L95.7302 55.1587L92.7857 58.1032L95.7302 66.0533L102.208 62.8144L103.68 59.281L99.5581 34.5473L65.402 14.8192L56.274 18.9415Z" fill="#A0F56C" stroke="black"/>
<path d="M122.526 12.1691L117.226 36.3139L111.926 41.9084L116.342 55.1586L115.165 60.7532L108.687 62.8143H102.209L103.681 59.2809L99.5588 34.5472L105.153 21.0026L111.631 9.51904L122.526 12.1691Z" fill="#52AEC7" stroke="black"/>
<path d="M72.1771 12.4648L65.4048 14.8204L99.5609 34.5485L105.155 21.0038L111.633 9.52031L106.039 8.93141L99.5609 8.63696L91.3163 8.93141L84.8384 9.52031L78.9494 10.6981L72.1771 12.4648Z" fill="#AD4C4C" stroke="black"/>
<path d="M135.188 16.587L130.771 30.4261L123.41 37.4929L117.226 36.3151L122.527 12.1703L128.121 13.937L135.188 16.587Z" fill="#B8AA92" stroke="black"/>
<path d="M165.81 40.436L160.215 44.5583L149.91 46.9139L139.015 41.9083L140.193 38.9638L138.132 31.897L130.77 30.4248L135.187 16.8801L138.426 18.3524L143.137 21.0024L148.143 24.2414L154.915 29.247L159.626 33.6637L165.81 40.436Z" fill="#87968C" stroke="black"/>
<path d="M169.638 45.1475L165.81 40.4363L160.215 44.5586L152.56 59.5755V64.2866L157.565 73.709L165.221 65.7589L177.294 58.1032L173.76 51.3309L169.638 45.1475Z" fill="#A0F56C" stroke="black"/>
<path d="M183.77 96.0879L186.125 103.449L186.42 96.3824L186.125 90.4934L185.242 83.1322L183.77 76.0654L182.003 69.2931L179.059 61.6374L177.292 58.104L165.22 65.7597L157.564 74.0042L142.547 85.1933L167.575 88.7267L183.77 96.0879Z" fill="#AD4C4C" stroke="black"/>
<path d="M134.01 100.504L145.199 94.9098L150.205 104.627L160.805 125.827L145.199 138.194L140.193 117.582L135.777 116.699L134.01 111.399L136.366 110.221L134.01 100.504Z" fill="#BBA888" stroke="black"/>
<path d="M162.569 110.221L150.202 104.626L160.802 125.826L177.88 134.954L181.414 126.415L183.475 119.643L185.242 111.398L186.125 103.448L179.353 102.859L162.569 110.221Z" fill="#52AEC7" stroke="black"/>
<path d="M177.882 134.953L160.804 125.825L145.198 138.192L140.192 158.803L149.026 169.109L155.209 164.398L162.276 157.625L168.754 149.97L174.348 141.431L177.882 134.953Z" fill="#87968C" stroke="black"/>
<path d="M48.3244 23.9467L56.2745 18.941L67.1691 42.7914V47.5026H62.7524L60.6913 51.6249L56.569 71.0585L55.9801 80.4809L40.6687 52.5082L37.7242 32.1912L42.4354 28.3634L48.3244 23.9467Z" fill="#BBA888" stroke="black"/>
<path d="M31.5408 38.6707L37.7242 32.4873L40.6687 52.5098L55.98 80.4825L46.2632 76.6547L35.9575 75.1824L25.0629 77.538L10.3405 86.077L11.5183 79.0102L13.2849 71.649L15.935 63.9933L19.7628 56.0432L25.6518 46.3264L31.5408 38.6707Z" fill="#D6D66D" stroke="black"/>
<path d="M91.6062 101.385H85.1283L87.1894 105.507L88.9561 124.058L83.0671 148.497L102.501 125.824L121.934 136.719L115.162 102.857L109.862 100.502L103.384 105.507L95.1395 104.624L91.6062 101.385Z" fill="#AD4C4C" stroke="black"/>
<path d="M105.743 147.908L102.504 125.825L121.938 136.719L126.06 149.675L140.194 158.803L149.027 169.109L140.194 174.703L131.066 178.826L122.232 181.77L105.743 147.908Z" fill="#D6D66D" stroke="black"/>
<path d="M83.0693 148.499L102.503 126.121L105.742 147.911L109.864 156.45L93.3751 170.878L70.7025 154.388L68.9358 143.788L70.1136 135.838H73.0581L83.0693 148.499Z" fill="#52AEC7" stroke="black"/>
<path d="M93.3755 170.879L109.865 156.451L122.231 181.773L119.876 182.657L113.987 183.834L109.276 184.718L102.503 185.307H95.1422L88.6643 184.718L93.3755 170.879Z" fill="#A0F56C" stroke="black"/>
<path d="M68.9381 143.789L57.749 136.722L41.5543 164.989L50.9767 171.761L59.2213 176.473L69.527 180.595L80.1271 183.539L88.6662 184.717L93.3773 170.878L70.7048 154.389L68.9381 143.789Z" fill="#B8AA92" stroke="black"/>
<path d="M60.6942 112.283L63.9332 110.222L62.7554 103.744L43.9106 116.7L20.9436 140.256L27.127 149.972L34.4883 158.511L41.555 164.989L57.7497 136.722L56.5719 119.644L60.6942 112.283Z" fill="#AD4C4C" stroke="black"/>
<path d="M23.2971 92.5542L10.3413 86.0763L10.0469 89.3152L9.75244 96.0876V104.038L10.9302 112.282L13.2858 122.294L16.8192 132.01L20.9415 140.255L43.9085 116.699L62.7533 103.743L53.3309 99.032L47.1475 100.504L23.2971 92.5542Z" fill="#BBA888" stroke="black"/>
</svg>
