<svg width="195" height="195" viewBox="0 0 195 195" fill="none" xmlns="http://www.w3.org/2000/svg">
<circle cx="97.9986" cy="97.1863" r="88.1291" stroke="black"/>
<circle cx="97.7902" cy="97.1877" r="96.3737" stroke="black"/>
<path d="M67.0804 43.0077L68.8471 44.48L70.9082 48.6023L82.6862 43.5966L97.4086 43.0077L95.6419 55.3746L92.6974 58.3191L95.6419 66.2692L102.12 63.0303H108.598L115.076 60.9691L116.253 55.3746L111.837 42.1244L117.431 36.5298L123.32 37.7076L130.681 30.6409L138.043 32.1131L140.104 39.1799L138.926 42.1244L149.821 47.13L160.126 44.7744L152.471 59.7913V64.5025L157.476 74.2193L142.459 85.4084L167.487 88.9418L183.682 96.303L186.038 103.664L179.265 103.075L162.482 110.437L150.115 104.842L145.109 95.1252L133.92 100.72L136.276 110.437L133.92 111.614L135.687 116.914L140.104 117.798L145.109 138.409L140.104 159.021L125.97 149.893L121.848 136.937L116.842 110.437L115.076 103.075L109.775 100.72L103.298 105.725L95.053 104.842L91.5196 101.603H85.0417L87.1029 105.725L88.8696 124.57L82.9806 148.715L72.9693 136.054H70.0248L68.8471 144.004L57.658 136.937L56.4802 119.859L60.6025 112.498L63.8414 110.437L62.6636 103.959L53.5357 99.2475L47.0578 100.72L23.2075 92.7696L10.2517 86.2917L25.2686 77.7527L35.8688 75.3971L46.1745 76.8694L55.8913 80.6972L56.4802 71.2748L60.6025 51.8412L62.6636 47.7189H67.0804V43.0077Z" fill="#B45B01" stroke="black"/>
<path d="M125.675 40.9474L119.197 41.8307V47.7197L116.841 50.0753L118.019 56.8476L124.202 61.8533L131.564 67.7422L135.686 64.5033L134.214 59.2032L129.502 55.9643L128.03 44.4808L125.675 40.9474Z" fill="#95DDB8" stroke="black"/>
<path d="M68.8459 76.283L73.557 59.7938L80.9183 66.5661L77.6793 72.1607V74.8107L85.6295 76.283L90.3406 78.933L87.6906 81.583H79.446L73.557 83.3497L75.6182 86.2942L70.3181 92.4777L76.796 100.722L73.557 102.489L68.8459 100.722H63.2513L59.4235 95.4221L65.9014 91.2999L56.479 89.8276L57.9512 85.4109H65.9014L70.3181 78.933L68.8459 76.283Z" fill="#95DDB8" stroke="black"/>
<path d="M56.2721 19.1583L66.8723 42.7142L68.9334 44.4809L70.9945 48.6032L82.7725 43.3031L97.495 42.7142L95.7283 55.3755L92.7838 58.32L95.7283 66.2701L102.206 63.0312L103.678 59.4978L99.5561 34.7641L65.4 15.036L56.2721 19.1583Z" fill="#C64824" stroke="black"/>
<path d="M122.524 12.386L117.224 36.5308L111.924 42.1254L116.34 55.3756L115.163 60.9701L108.685 63.0312H102.207L103.679 59.4978L99.5569 34.7641L105.151 21.2195L111.629 9.73596L122.524 12.386Z" fill="#52AEC7" stroke="black"/>
<path d="M72.1752 12.6816L65.4028 15.0372L99.5589 34.7653L105.153 21.2206L111.631 9.73711L106.037 9.14821L99.5589 8.85376L91.3143 9.14821L84.8365 9.73711L78.9475 10.9149L72.1752 12.6816Z" fill="#D4BD3D" stroke="black"/>
<path d="M135.186 16.8039L130.769 30.643L123.408 37.7098L117.225 36.532L122.525 12.3872L128.119 14.1539L135.186 16.8039Z" fill="#B8AA92" stroke="black"/>
<path d="M165.808 40.653L160.213 44.7752L149.908 47.1308L139.013 42.1252L140.191 39.1807L138.13 32.1139L130.768 30.6417L135.185 17.097L138.424 18.5693L143.135 21.2193L148.141 24.4583L154.913 29.4639L159.624 33.8806L165.808 40.653Z" fill="#BAC9FF" stroke="black"/>
<path d="M169.636 45.3644L165.808 40.6532L160.214 44.7755L152.558 59.7924V64.5036L157.563 73.9259L165.219 65.9758L177.292 58.3201L173.758 51.5478L169.636 45.3644Z" fill="#C64824" stroke="black"/>
<path d="M183.768 96.3047L186.123 103.666L186.418 96.5992L186.123 90.7102L185.24 83.349L183.768 76.2822L182.001 69.5099L179.057 61.8542L177.29 58.3208L165.218 65.9765L157.562 74.221L142.545 85.4101L167.573 88.9435L183.768 96.3047Z" fill="#D4BD3D" stroke="black"/>
<path d="M134.008 100.721L145.197 95.1267L150.203 104.844L160.803 126.044L145.197 138.411L140.191 117.799L135.775 116.916L134.008 111.616L136.364 110.438L134.008 100.721Z" fill="#BBA888" stroke="black"/>
<path d="M162.567 110.437L150.2 104.843L160.8 126.043L177.879 135.171L181.412 126.632L183.473 119.86L185.24 111.615L186.123 103.665L179.351 103.076L162.567 110.437Z" fill="#52AEC7" stroke="black"/>
<path d="M177.88 135.169L160.802 126.042L145.196 138.408L140.19 159.02L149.024 169.326L155.207 164.614L162.274 157.842L168.752 150.186L174.347 141.647L177.88 135.169Z" fill="#BAC9FF" stroke="black"/>
<path d="M48.3226 24.1636L56.2727 19.158L67.1673 43.0083V47.7195H62.7506L60.6894 51.8418L56.5671 71.2754L55.9782 80.6978L40.6669 52.7251L37.7224 32.4082L42.4336 28.5803L48.3226 24.1636Z" fill="#BBA888" stroke="black"/>
<path d="M31.5388 38.8877L37.7223 32.7042L40.6667 52.7268L55.9781 80.6994L46.2613 76.8716L35.9556 75.3993L25.061 77.7549L10.3385 86.2939L11.5163 79.2272L13.283 71.8659L15.933 64.2103L19.7609 56.2601L25.6498 46.5433L31.5388 38.8877Z" fill="#95DDB8" stroke="black"/>
<path d="M91.6042 101.602H85.1263L87.1875 105.724L88.9542 124.275L83.0652 148.714L102.499 126.041L121.932 136.936L115.16 103.074L109.86 100.719L103.382 105.724L95.1376 104.841L91.6042 101.602Z" fill="#D4BD3D" stroke="black"/>
<path d="M105.741 148.125L102.502 126.042L121.936 136.936L126.058 149.892L140.192 159.02L149.025 169.326L140.192 174.92L131.064 179.042L122.231 181.987L105.741 148.125Z" fill="#95DDB8" stroke="black"/>
<path d="M83.0674 148.716L102.501 126.338L105.74 148.127L109.862 156.666L93.3731 171.094L70.7005 154.605L68.9338 144.005L70.1116 136.055H73.0561L83.0674 148.716Z" fill="#52AEC7" stroke="black"/>
<path d="M93.3735 171.095L109.863 156.667L122.23 181.99L119.874 182.873L113.985 184.051L109.274 184.935L102.501 185.523H95.1402L88.6624 184.935L93.3735 171.095Z" fill="#C64824" stroke="black"/>
<path d="M68.9361 144.006L57.7471 136.939L41.5524 165.206L50.9747 171.978L59.2193 176.69L69.525 180.812L80.1252 183.756L88.6642 184.934L93.3754 171.095L70.7028 154.606L68.9361 144.006Z" fill="#B8AA92" stroke="black"/>
<path d="M60.6923 112.5L63.9312 110.439L62.7534 103.961L43.9087 116.916L20.9417 140.472L27.1251 150.189L34.4863 158.728L41.5531 165.206L57.7478 136.939L56.57 119.861L60.6923 112.5Z" fill="#D4BD3D" stroke="black"/>
<path d="M23.2953 92.771L10.3395 86.2931L10.0451 89.532L9.75061 96.3044V104.254L10.9284 112.499L13.284 122.51L16.8174 132.227L20.9397 140.472L43.9067 116.916L62.7514 103.96L53.3291 99.2488L47.1456 100.721L23.2953 92.771Z" fill="#BBA888" stroke="black"/>
</svg>
