<svg width="143" height="143" viewBox="0 0 143 143" fill="none" xmlns="http://www.w3.org/2000/svg">
<rect width="143" height="143" fill="#95DDB8"/>
<path d="M54.6809 89.4269L56.7538 81.5066L58.1922 81.3076L59.5111 83.0984L61.7293 85.1144L66.4593 87.11L71.2108 87.7946L78.6276 85.9005L82.6209 83.0592L80.505 79.3377L77.5409 74.5383L78.8781 72.2222L81.9345 66.9283L82.4701 63.7083L82.9512 58.5452L79.0399 57.1693L73.1559 55.3897L66.3633 55.4385L65.3162 52.9222L63.4891 48.1911L58.3022 42.4024L52.5547 38.3488L49.038 37.0537L45.8396 35.2071L43.8544 34.0609L42.4627 34.4339L41.6257 37.9211L39.5245 41.5606L36.086 47.5162L34.7351 52.9124L32.0857 59.0295L32.1698 61.4309L33.2715 65.8903L32.7825 69.2842L27.2872 72.4348L24.0398 78.0595L20.8993 80.952L23.6565 82.5439L26.2943 86.1255L28.0589 87.1443L30.8582 89.9369L36.2623 93.057C37.0564 93.5155 39.7653 97.4323 41.0206 99.3334L45.4163 98.3421L51.4334 95.0517L54.6809 89.4269Z" fill="#C73A2A" stroke="#C73A2A" stroke-width="2"/>
<path d="M102.743 87.9403L107.376 85.9003L108.026 86.5205L107.665 87.8477L107.541 89.697L108.392 92.7551L109.887 95.3198L113.655 98.1844L116.566 99.0267L117.555 96.5714L118.741 93.2911L120.377 93.0486L124.116 92.4945L125.881 91.5164L128.567 89.765L127.73 87.3416L126.331 83.8075L123.697 80.536L124.513 79.0617L126.103 76.3583L126.913 71.621L126.668 67.2791L125.943 65.0778L125.609 62.8188L125.401 61.4167L124.685 60.8859L122.674 61.8208L120.104 62.2018L115.897 62.8252L112.764 64.2448L108.783 65.3125L107.652 66.2762L105.916 68.5237L104.084 69.5913L100.445 68.1403L96.4728 68.7291L93.8647 68.3196L94.1533 70.267L93.4322 72.9213L93.6169 74.1676L93.3401 76.5968L93.9058 80.4137C93.9889 80.9746 93.1328 83.7921 92.6944 85.1308L94.864 86.879L98.7705 88.529L102.743 87.9403Z" fill="#C73A2A" stroke="#C73A2A" stroke-width="2"/>
</svg>
