<svg width="143" height="143" viewBox="0 0 143 143" fill="none" xmlns="http://www.w3.org/2000/svg">
<rect width="143" height="143" fill="#D4BD3D"/>
<g clip-path="url(#clip0_207_5)">
<path d="M136.619 141.678C136.619 141.678 136.215 140.174 136.079 139.934C135.943 139.694 134.522 133.672 134.522 133.672C134.522 133.672 133.902 133.754 133.983 133.198C134.063 132.642 134.603 130.38 134.603 130.026C134.391 129.244 134.12 128.476 133.79 127.726C133.79 127.726 132.345 127.568 132.891 126.778C133.437 125.987 133.927 125.584 133.927 125.11C133.904 124.44 133.69 123.786 133.307 123.208L132.494 122.118L133.083 112.727L134.659 108.961L138.243 99.336L139 97.1559L138.864 95.8969L134.262 92.9266L130.876 87.9888L129.455 84.8985H126.82L123.979 77.9441L122.119 76.1565V74.7285L119.954 72.1234L119.415 69.7961L115.396 65H113.684L114.565 66.9839L115.018 68.33L114.36 69.3601L109.492 71.6219H104.779L102.992 72.9681L98.707 72.7501H94.1797L91.5067 73.257L89.0694 73.6112L87.0725 73.4041L84.5049 73.4641L77.683 84.9367L79.2086 86.1575L79.4939 87.3456L76.6783 93.7768L73.7882 95.0413L72.0765 95.0849L70.4517 95.8751L70.9478 97.3794L73.4285 97.859L74.241 97.7009C74.241 97.7009 75.1898 98.4149 75.1898 98.5294C75.1898 98.6438 76.1325 101.423 76.1325 101.423L75.4131 104.475L73.8378 107.233L73.2487 111.533L73.5216 113.833L74.4642 117.436L74.9604 119.142L74.1975 119.458H71.3075L66.9229 118.531L63.6669 117.125C63.6669 117.125 61.6017 117.36 61.5335 117.398C61.2261 117.454 60.9156 117.496 60.6032 117.523L60.2807 118.215C60.3322 118.598 60.4067 118.978 60.504 119.354C60.5536 119.398 61.18 120.444 61.2048 120.477C61.2296 120.51 61.1242 122.178 61.1242 122.178C61.1242 122.178 61.1614 124.063 61.18 124.107C61.1986 124.151 61.5335 125.268 61.6017 125.404C61.8106 125.738 62.0425 126.06 62.2963 126.369C62.3645 126.412 64.4421 127.513 64.5414 127.541C64.6406 127.568 65.8313 128.674 65.8313 128.674L66.6066 129.165C66.6066 129.165 66.5073 129.982 66.4887 130.042C66.4701 130.102 65.2484 130.113 65.1553 130.206C65.0623 130.298 62.4266 130.157 62.3769 130.206C62.3273 130.255 59.7226 130.696 59.7226 130.696L58.0853 131.29C57.7552 131.612 57.4603 131.961 57.2047 132.331C57.2047 132.462 57.4713 133.77 57.4713 133.863C57.4713 133.955 57 135.378 57 135.378C57 135.378 57.2729 137.187 57.2729 137.231C57.2729 137.275 57.093 138.506 57.1116 138.577C57.1302 138.648 58.1845 139.542 58.2155 139.558C58.2466 139.575 58.9536 141.58 58.9536 141.58C58.9536 141.58 60.1939 142.67 60.2807 142.752C60.6743 143.175 61.0289 143.625 61.3412 144.098C61.3847 144.294 61.9614 145.363 61.9924 145.542C62.0234 145.722 62.2653 147.052 62.2653 147.248C62.3393 147.666 62.4598 148.077 62.625 148.475C62.9169 148.818 63.1743 149.182 63.394 149.565C63.8949 149.982 64.4973 150.293 65.1553 150.475C65.5585 150.535 66.6872 150.633 66.7988 150.693C66.9105 150.753 70.923 150.693 70.923 150.693L73.3169 150.355C73.7197 150.234 74.1352 150.148 74.5573 150.099C74.6441 150.159 76.0457 150.546 76.1077 150.72C76.1697 150.894 76.9697 151.647 77.286 152.023C77.6911 152.511 78.1346 152.973 78.6132 153.407C78.9794 153.703 79.3118 154.03 79.6055 154.383C79.7612 154.838 79.8834 155.303 79.9714 155.772L80.4179 157.833V159.735C80.4179 159.735 82.5389 161.517 82.5389 161.637C82.5389 161.757 83.7793 164.493 83.7793 164.493C83.6707 165.063 83.4614 165.614 83.1591 166.128C82.7994 166.526 81.4908 166.962 81.6273 167.517C81.8533 168.171 82.2035 168.787 82.663 169.338C83.3162 169.826 83.8392 170.434 84.1948 171.12C84.6041 172.112 84.8708 171.954 84.8708 172.826C84.8708 173.698 85.5468 176.096 85.491 176.641C85.4352 177.186 85.6709 178.309 85.1747 178.543C84.6786 178.777 82.5141 179.933 82.5141 179.933L81.435 179.099L79.99 180.287L75.165 181.001L72.368 180.723L71.599 180.407C71.599 180.407 72.0951 182.391 72.6347 182.707C73.5236 183.084 74.3217 183.607 74.9852 184.249C76.2255 185.438 76.3868 185.596 76.5666 185.993C76.7902 186.501 76.9848 187.017 77.1496 187.541C77.4225 188.332 77.3791 189.324 77.5155 189.52C77.6519 189.716 80.2195 191.94 80.2195 191.94L82.4273 190.751C82.5312 190.467 82.6059 190.175 82.6506 189.879C82.8886 189.23 83.1745 188.594 83.5064 187.977C83.5064 187.977 83.2832 188.37 84.232 187.738C85.1809 187.105 97.0635 174.183 97.0635 174.183L99.2714 172.237L100.853 171.278C101.244 171.632 101.483 172.094 101.529 172.586C101.589 173.319 101.514 174.055 101.306 174.766C101.033 175.437 100.685 176.788 100.264 177.3C99.8419 177.813 99.4078 177.846 98.8248 178.57C98.2419 179.295 98.5954 180.712 98.0992 180.947C97.6031 181.181 98.1923 180.832 97.0201 181.661C95.848 182.489 95.5317 182.375 95.5317 182.93C95.5396 183.536 95.4327 184.138 95.2154 184.713C95.0355 184.991 95.079 184.871 94.8061 185.111C94.5332 185.35 94.2665 185.547 93.4107 186.337C92.5548 187.127 89.578 188.599 89.578 188.599C89.578 188.599 89.3485 190.539 89.3485 190.659C88.5709 191.202 87.7593 191.706 86.9174 192.169L85.8321 193.515C85.8321 193.515 85.7887 193.913 87.3205 193.515C88.8524 193.117 91.0416 191.732 91.3827 191.569C91.7238 191.405 91.9657 190.479 92.1021 190.185C92.2385 189.89 92.4618 189.231 93.9626 187.923C95.4635 186.615 95.2712 185.983 96.3999 185.35C97.5287 184.718 100.506 182.969 101.498 182.625C102.49 182.282 105.374 181.394 105.374 181.394L107.092 182.544L108.332 177.175L108.828 175.507L106.434 174.319L106.279 170.041L105.994 166.918L104.865 166.46L103.309 165.588L103.873 164.182L103.402 160.912L102.992 159.822L103.402 158.988L104.369 157.44L104.326 154.906L105.095 153.004L107.638 149.99L110.416 146.48L112.816 144.332L118.522 141.607C118.522 141.607 120.686 141.444 121.182 141.488C121.678 141.531 125.238 142.158 125.424 142.36C125.883 143.31 126.258 144.291 126.547 145.292C126.683 145.837 127.272 147.074 127.316 147.314C127.588 147.862 127.905 148.392 128.265 148.9C128.732 149.36 129.245 149.783 129.797 150.164C130.126 150.354 130.5 150.477 130.89 150.525C131.28 150.573 131.678 150.545 132.054 150.442C133.133 150.164 133.586 150.366 134.665 149.352C135.4 148.659 136.2 148.023 137.059 147.45C137.958 146.818 138.864 146.736 138.82 145.744C138.777 144.752 139.229 144.714 138.82 144.24L136.619 141.678ZM99.5939 112.296L97.355 114.16C96.9708 114.484 96.5177 114.738 96.0217 114.908C95.5256 115.078 94.9963 115.16 94.4641 115.15C93.9318 115.14 93.4071 115.038 92.9198 114.849C92.4326 114.661 91.9925 114.39 91.6246 114.051C90.9845 113.481 90.5526 112.756 90.3842 111.969L89.3423 107.152C89.2126 106.568 89.228 105.967 89.3875 105.389C89.547 104.812 89.8468 104.271 90.2664 103.805L93.082 100.72C93.416 100.342 93.8335 100.026 94.3096 99.7929C94.7856 99.5594 95.3104 99.4129 95.8524 99.362C96.3945 99.3111 96.9426 99.3569 97.464 99.4967C97.9854 99.6364 98.4694 99.8673 98.8869 100.175L98.9613 100.23C99.446 100.586 99.8417 101.027 100.124 101.524C100.405 102.021 100.567 102.564 100.599 103.118L100.983 109.114C101.027 109.701 100.926 110.289 100.686 110.839C100.446 111.388 100.073 111.886 99.5939 112.296ZM118.968 105.544L118.249 113.55C118.22 114.129 118.017 114.692 117.659 115.179C117.302 115.667 116.803 116.062 116.215 116.324L114.453 117.022C112.977 117.605 111.352 116.945 110.67 115.49L110.335 114.716C110.285 114.608 110.242 114.497 110.205 114.384L108.475 109.244C108.311 108.732 108.271 108.196 108.357 107.669L109.095 103.271C109.212 102.424 109.686 101.647 110.422 101.091C111.576 100.246 113.337 99.1016 114.205 99.227C115.446 99.4123 117.405 101.952 118.429 103.369C118.871 104.024 119.061 104.787 118.968 105.544Z" fill="black"/>
</g>
<defs>
<clipPath id="clip0_207_5">
<rect width="82" height="78" fill="white" transform="translate(57 65)"/>
</clipPath>
</defs>
</svg>
