<svg width="143" height="143" viewBox="0 0 143 143" fill="none" xmlns="http://www.w3.org/2000/svg">
<rect width="143" height="143" fill="#0F4D5A"/>
<path d="M71.5156 87.7816L70.0706 85.527L72.9348 87.7655L72.9831 92.0232L71.5881 94.1681L73.0492 97.842C74.5705 98.4871 77.8699 99.888 78.8969 100.331C79.9239 100.773 83.7835 101.505 85.585 101.816L96.3871 103.113L100.061 101.652L98.1275 93.867L96.21 87.5015L92.1863 83.147L97.9632 79.391L101.007 72.4014L103.671 69.5324L105.182 65.1151L106.942 57.5723L103.547 58.6044L95.8832 58.6914L91.9239 60.0137L90.5368 62.8683L87.0162 65.3212L82.4747 65.3727L85.0585 55.4076L86.8375 49.5679L82.1865 39.9687L82.1446 36.2788L75.5161 40.0444L68.0651 46.3743L66.5281 48.5208L65.2007 56.6265L61.5687 61.7775C60.1307 60.1379 56.7941 56.296 54.9517 54.0459C53.1094 51.7957 50.2963 52.3954 49.1201 52.9765C46.5999 51.8696 41.5605 49.7409 41.5644 50.0815L41.6111 54.1972L43.7026 63.3996L43.7799 70.2118L45.799 73.0277C46.9892 73.6766 49.3722 75.2015 49.3825 76.1098C49.3928 77.0181 50.2566 78.087 50.6872 78.5079L49.426 79.9417L45.9005 81.9688L41.9701 85.8458L39.6557 94.5304L46.0695 96.8706L59.2827 97.9982L62.026 102.083L65.6692 97.9257L67.0466 94.2196L71.543 90.1943L71.5156 87.7816Z" fill="#D4BD3D" fill-opacity="0.67" stroke="#C73A2A" stroke-width="2"/>
</svg>
