<svg width="73" height="142" viewBox="0 0 73 142" fill="none" xmlns="http://www.w3.org/2000/svg">
<path d="M71.7571 140.638H0.794861V34.7675H71.7571V140.638Z" fill="#829CAE"/>
<path d="M5.07152 40.5943V140.495H0.663147V35.0521H71.9081V140.495H67.2153V40.5943H5.07152Z" fill="#F4D175"/>
<path fill-rule="evenodd" clip-rule="evenodd" d="M0.663452 35.0529H71.8886C71.4383 15.6165 55.6664 0 36.276 0C16.8857 0 1.11379 15.6165 0.663452 35.0529Z" fill="#F4D175"/>
<path opacity="0.7" fill-rule="evenodd" clip-rule="evenodd" d="M67.0921 35.0531H5.17682C5.56821 18.461 19.2786 5.1297 36.1345 5.1297C52.9904 5.1297 66.7007 18.461 67.0921 35.0531Z" fill="#829CAE"/>
<path d="M36.2762 78.0843V59.5606L11.6797 78.0843H36.2762Z" fill="#B58A85"/>
<path d="M36.2758 78.0843V59.5606L60.8723 78.0843H36.2758Z" fill="#598678"/>
<path d="M36.2758 78.0844V96.6081L60.8723 78.0844H36.2758Z" fill="#B58A85"/>
<path d="M36.2762 78.0844V96.6081L11.6797 78.0844H36.2762Z" fill="#598678"/>
<rect x="26.0984" y="67.2551" width="20.3557" height="21.6585" fill="#E5D3A1"/>
<path d="M36.286 40.467V59.5607H61.1652V40.467H36.286Z" fill="#B58A85"/>
<path d="M36.286 96.6081V115.702H11.4068V96.6081H36.286Z" fill="#B58A85"/>
<path d="M11.4066 40.467V59.5607H36.2858V40.467H11.4066Z" fill="#E6D3A1"/>
<path d="M61.1647 96.6081V115.702H36.2855V96.6081H61.1647Z" fill="#E6D3A1"/>
<path d="M72.0508 140.638H0.520874V34.7675H72.0508V140.638Z" stroke="black"/>
<path d="M4.93806 40.4668V140.637H0.520874V34.9097H71.9083V140.637H67.2062V40.4668H4.93806Z" stroke="black"/>
<path d="M61.3643 134.225H11.2078V40.4667H61.3643V134.225Z" stroke="black"/>
<mask id="path-17-inside-1_184_889" fill="white">
<path fill-rule="evenodd" clip-rule="evenodd" d="M0.388672 35.0529H72.1836C71.7297 15.6165 55.8317 0 36.2862 0C16.7407 0 0.842607 15.6165 0.388672 35.0529Z"/>
</mask>
<path d="M0.388672 35.0529L-0.611055 35.0295L-0.634956 36.0529H0.388672V35.0529ZM72.1836 35.0529V36.0529H73.2073L73.1834 35.0295L72.1836 35.0529ZM0.388672 36.0529H72.1836V34.0529H0.388672V36.0529ZM36.2862 1C55.2872 1 70.7426 16.1816 71.1839 35.0762L73.1834 35.0295C72.7168 15.0514 56.3761 -1 36.2862 -1V1ZM1.3884 35.0762C1.82968 16.1816 17.2851 1 36.2862 1V-1C16.1962 -1 -0.144467 15.0514 -0.611055 35.0295L1.3884 35.0762Z" fill="black" mask="url(#path-17-inside-1_184_889)"/>
<mask id="path-19-inside-2_184_889" fill="white">
<path fill-rule="evenodd" clip-rule="evenodd" d="M67.3474 35.0533H4.93677C5.33129 18.4612 19.1513 5.12994 36.1421 5.12994C53.1328 5.12994 66.9529 18.4612 67.3474 35.0533Z"/>
</mask>
<path d="M4.93677 35.0533L3.93705 35.0295L3.91271 36.0533H4.93677V35.0533ZM67.3474 35.0533V36.0533H68.3714L68.3471 35.0295L67.3474 35.0533ZM4.93677 36.0533H67.3474V34.0533H4.93677V36.0533ZM5.93648 35.0771C6.31774 19.043 19.6791 6.12994 36.1421 6.12994V4.12994C18.6236 4.12994 4.34484 17.8794 3.93705 35.0295L5.93648 35.0771ZM36.1421 6.12994C52.6051 6.12994 65.9664 19.043 66.3477 35.0771L68.3471 35.0295C67.9393 17.8794 53.6605 4.12994 36.1421 4.12994V6.12994Z" fill="black" mask="url(#path-19-inside-2_184_889)"/>
<path d="M4.93793 140.638L11.2075 134.226" stroke="black"/>
<path d="M67.0638 140.496L61.3642 134.226" stroke="black"/>
<path d="M4.93793 103.02L11.2075 96.6081" stroke="black"/>
<path d="M67.3489 102.878L61.3643 96.6081" stroke="black"/>
<path d="M4.93793 121.543L11.2075 115.131" stroke="black"/>
<path d="M67.3489 121.401L61.3643 115.131" stroke="black"/>
<path d="M4.93793 84.4969L11.2075 78.0849" stroke="black"/>
<path d="M67.3489 84.6394L61.3643 78.0849" stroke="black"/>
<path d="M4.93793 65.973L11.2075 59.561" stroke="black"/>
<path d="M67.3489 66.1155L61.3643 59.561" stroke="black"/>
<path d="M11.2078 59.561H61.3643" stroke="black"/>
<path d="M11.2078 78.0849H61.3643" stroke="black"/>
<path d="M11.2078 96.6081H61.3643" stroke="black"/>
<path d="M11.2078 115.131H61.3643" stroke="black"/>
<path d="M36.2859 40.4667V134.083" stroke="black"/>
<path d="M36.286 78.0847V59.561L11.4928 78.0847H36.286Z" stroke="black"/>
<path d="M36.2857 78.0847V59.561L61.079 78.0847H36.2857Z" stroke="black"/>
<path d="M36.2857 78.0844V96.6081L61.079 78.0844H36.2857Z" stroke="black"/>
<path d="M36.286 78.0844V96.6081L11.4928 78.0844H36.286Z" stroke="black"/>
<rect x="26.5268" y="67.7551" width="19.5185" height="20.6585" stroke="black"/>
</svg>
