<svg width="143" height="143" viewBox="0 0 143 143" fill="none" xmlns="http://www.w3.org/2000/svg">
<rect width="143" height="143" fill="#B45B01"/>
<path d="M52.8844 40.8028L54 41.7317L55.3015 44.3326L62.7387 41.1743L72.0352 40.8028L70.9196 48.6055L69.0603 50.4633L70.9196 55.4794L75.01 53.4358H79.1005L83.1909 52.1353L83.9347 48.6055L81.1457 40.2454L84.6784 36.7156L88.397 37.4587L93.0452 33L97.6935 33.9289L98.995 38.3876L98.2513 40.2454L105.131 43.4037L111.638 41.9174L106.804 51.3922V54.3647L109.965 60.4954L100.482 67.555L116.286 69.7844L126.513 74.4289L128 79.0734L123.724 78.7018L113.126 83.3463L105.317 79.8165L102.156 73.6858L95.0904 77.2156L96.5779 83.3463L95.0904 84.0894L96.206 87.4335L98.995 87.9908L102.156 100.995L98.995 114L90.0704 108.241L87.4673 100.067L84.3065 83.3463L83.1909 78.7018L79.8442 77.2156L75.7538 80.3739L70.5477 79.8165L68.3166 77.7729H64.2261L65.5276 80.3739L66.6432 92.2638L62.9246 107.498L56.603 99.5092H54.7437L54 104.525L46.9347 100.067L46.191 89.2913L48.794 84.6468L50.8392 83.3463L50.0955 79.2592L44.3317 76.2867L40.2412 77.2156L25.1809 72.1995L17 68.1124L26.4824 62.7248L33.1759 61.2385L39.6834 62.1674L45.8191 64.5826L46.191 58.6376L48.794 46.3761L50.0955 43.7752H52.8844V40.8028Z" fill="black"/>
</svg>
