<svg width="143" height="143" viewBox="0 0 143 143" fill="none" xmlns="http://www.w3.org/2000/svg">
<rect width="143" height="143" fill="#0F4D5A"/>
<path d="M73.5156 96.7816L72.0706 94.527L74.9348 96.7655L74.9831 101.023L73.5881 103.168L75.0492 106.842C76.5705 107.487 79.8699 108.888 80.8969 109.331C81.9239 109.773 85.7835 110.505 87.585 110.816L98.3871 112.113L102.061 110.652L100.127 102.867L98.21 96.5015L94.1863 92.147L99.9632 88.391L103.007 81.4014L105.671 78.5324L107.182 74.1151L108.942 66.5723L105.547 67.6044L97.8832 67.6914L93.9239 69.0137L92.5368 71.8683L89.0162 74.3212L84.4747 74.3727L87.0585 64.4076L88.8375 58.5679L84.1865 48.9687L84.1446 45.2788L77.5161 49.0444L70.0651 55.3743L68.5281 57.5208L67.2007 65.6265L63.5687 70.7775C62.1307 69.1379 58.7941 65.296 56.9517 63.0459C55.1094 60.7957 52.2963 61.3954 51.1201 61.9765C48.5999 60.8696 43.5605 58.7409 43.5644 59.0815L43.6111 63.1972L45.7026 72.3996L45.7799 79.2118L47.799 82.0277C48.9892 82.6766 51.3722 84.2015 51.3825 85.1098C51.3928 86.0181 52.2566 87.087 52.6872 87.5079L51.426 88.9417L47.9005 90.9688L43.9701 94.8458L41.6557 103.53L48.0695 105.871L61.2827 106.998L64.026 111.083L67.6692 106.926L69.0466 103.22L73.543 99.1943L73.5156 96.7816Z" fill="#D4BD3D" fill-opacity="0.67" stroke="#C73A2A" stroke-width="2"/>
</svg>
