<svg width="143" height="143" viewBox="0 0 143 143" fill="none" xmlns="http://www.w3.org/2000/svg">
<rect width="143" height="143" fill="#D4BD3D"/>
<g clip-path="url(#clip0_451_3)">
<path d="M137.619 141.678C137.619 141.678 137.215 140.174 137.079 139.934C136.943 139.694 135.522 133.672 135.522 133.672C135.522 133.672 134.902 133.754 134.983 133.198C135.063 132.642 135.603 130.38 135.603 130.026C135.391 129.244 135.12 128.476 134.79 127.726C134.79 127.726 133.345 127.568 133.891 126.778C134.437 125.987 134.927 125.584 134.927 125.11C134.904 124.44 134.69 123.786 134.307 123.208L133.494 122.118L134.083 112.727L135.659 108.961L139.243 99.336L140 97.1559L139.864 95.8969L135.262 92.9266L131.876 87.9888L130.455 84.8985H127.82L124.979 77.9441L123.119 76.1565V74.7285L120.954 72.1234L120.415 69.7961L116.396 65H114.684L115.565 66.9839L116.018 68.33L115.36 69.3601L110.492 71.6219H105.779L103.992 72.9681L99.707 72.7501H95.1797L92.5067 73.257L90.0694 73.6112L88.0725 73.4041L85.5049 73.4641L78.683 84.9367L80.2086 86.1575L80.4939 87.3456L77.6783 93.7768L74.7882 95.0413L73.0765 95.0849L71.4517 95.8751L71.9478 97.3794L74.4285 97.859L75.241 97.7009C75.241 97.7009 76.1898 98.4149 76.1898 98.5294C76.1898 98.6438 77.1325 101.423 77.1325 101.423L76.4131 104.475L74.8378 107.233L74.2487 111.533L74.5216 113.833L75.4642 117.436L75.9604 119.142L75.1975 119.458H72.3075L67.9229 118.531L64.6669 117.125C64.6669 117.125 62.6017 117.36 62.5335 117.398C62.2261 117.454 61.9156 117.496 61.6032 117.523L61.2807 118.215C61.3322 118.598 61.4067 118.978 61.504 119.354C61.5536 119.398 62.18 120.444 62.2048 120.477C62.2296 120.51 62.1242 122.178 62.1242 122.178C62.1242 122.178 62.1614 124.063 62.18 124.107C62.1986 124.151 62.5335 125.268 62.6017 125.404C62.8106 125.738 63.0425 126.06 63.2963 126.369C63.3645 126.412 65.4421 127.513 65.5414 127.541C65.6406 127.568 66.8313 128.674 66.8313 128.674L67.6066 129.165C67.6066 129.165 67.5073 129.982 67.4887 130.042C67.4701 130.102 66.2484 130.113 66.1553 130.206C66.0623 130.298 63.4266 130.157 63.3769 130.206C63.3273 130.255 60.7226 130.696 60.7226 130.696L59.0853 131.29C58.7552 131.612 58.4603 131.961 58.2047 132.331C58.2047 132.462 58.4713 133.77 58.4713 133.863C58.4713 133.955 58 135.378 58 135.378C58 135.378 58.2729 137.187 58.2729 137.231C58.2729 137.275 58.093 138.506 58.1116 138.577C58.1302 138.648 59.1845 139.542 59.2155 139.558C59.2466 139.575 59.9536 141.58 59.9536 141.58C59.9536 141.58 61.1939 142.67 61.2807 142.752C61.6743 143.175 62.0289 143.625 62.3412 144.098C62.3847 144.294 62.9614 145.363 62.9924 145.542C63.0234 145.722 63.2653 147.052 63.2653 147.248C63.3393 147.666 63.4598 148.077 63.625 148.475C63.9169 148.818 64.1743 149.182 64.394 149.565C64.8949 149.982 65.4973 150.293 66.1553 150.475C66.5585 150.535 67.6872 150.633 67.7988 150.693C67.9105 150.753 71.923 150.693 71.923 150.693L74.3169 150.355C74.7197 150.234 75.1352 150.148 75.5573 150.099C75.6441 150.159 77.0457 150.546 77.1077 150.72C77.1697 150.894 77.9697 151.647 78.286 152.023C78.6911 152.511 79.1346 152.973 79.6132 153.407C79.9794 153.703 80.3118 154.03 80.6055 154.383C80.7612 154.838 80.8834 155.303 80.9714 155.772L81.4179 157.833V159.735C81.4179 159.735 83.5389 161.517 83.5389 161.637C83.5389 161.757 84.7793 164.493 84.7793 164.493C84.6707 165.063 84.4614 165.614 84.1591 166.128C83.7994 166.526 82.4908 166.962 82.6273 167.517C82.8533 168.171 83.2035 168.787 83.663 169.338C84.3162 169.826 84.8392 170.434 85.1948 171.12C85.6041 172.112 85.8708 171.954 85.8708 172.826C85.8708 173.698 86.5468 176.096 86.491 176.641C86.4352 177.186 86.6709 178.309 86.1747 178.543C85.6786 178.777 83.5141 179.933 83.5141 179.933L82.435 179.099L80.99 180.287L76.165 181.001L73.368 180.723L72.599 180.407C72.599 180.407 73.0951 182.391 73.6347 182.707C74.5236 183.084 75.3217 183.607 75.9852 184.249C77.2255 185.438 77.3868 185.596 77.5666 185.993C77.7902 186.501 77.9848 187.017 78.1496 187.541C78.4225 188.332 78.3791 189.324 78.5155 189.52C78.6519 189.716 81.2195 191.94 81.2195 191.94L83.4273 190.751C83.5312 190.467 83.6059 190.175 83.6506 189.879C83.8886 189.23 84.1745 188.594 84.5064 187.977C84.5064 187.977 84.2832 188.37 85.232 187.738C86.1809 187.105 98.0635 174.183 98.0635 174.183L100.271 172.237L101.853 171.278C102.244 171.632 102.483 172.094 102.529 172.586C102.589 173.319 102.514 174.055 102.306 174.766C102.033 175.437 101.685 176.788 101.264 177.3C100.842 177.813 100.408 177.846 99.8248 178.57C99.2419 179.295 99.5954 180.712 99.0992 180.947C98.6031 181.181 99.1923 180.832 98.0201 181.661C96.848 182.489 96.5317 182.375 96.5317 182.93C96.5396 183.536 96.4327 184.138 96.2154 184.713C96.0355 184.991 96.079 184.871 95.8061 185.111C95.5332 185.35 95.2665 185.547 94.4107 186.337C93.5548 187.127 90.578 188.599 90.578 188.599C90.578 188.599 90.3485 190.539 90.3485 190.659C89.5709 191.202 88.7593 191.706 87.9174 192.169L86.8321 193.515C86.8321 193.515 86.7887 193.913 88.3205 193.515C89.8524 193.117 92.0416 191.732 92.3827 191.569C92.7238 191.405 92.9657 190.479 93.1021 190.185C93.2385 189.89 93.4618 189.231 94.9626 187.923C96.4635 186.615 96.2712 185.983 97.3999 185.35C98.5287 184.718 101.506 182.969 102.498 182.625C103.49 182.282 106.374 181.394 106.374 181.394L108.092 182.544L109.332 177.175L109.828 175.507L107.434 174.319L107.279 170.041L106.994 166.918L105.865 166.46L104.309 165.588L104.873 164.182L104.402 160.912L103.992 159.822L104.402 158.988L105.369 157.44L105.326 154.906L106.095 153.004L108.638 149.99L111.416 146.48L113.816 144.332L119.522 141.607C119.522 141.607 121.686 141.444 122.182 141.488C122.678 141.531 126.238 142.158 126.424 142.36C126.883 143.31 127.258 144.291 127.547 145.292C127.683 145.837 128.272 147.074 128.316 147.314C128.588 147.862 128.905 148.392 129.265 148.9C129.732 149.36 130.245 149.783 130.797 150.164C131.126 150.354 131.5 150.477 131.89 150.525C132.28 150.573 132.678 150.545 133.054 150.442C134.133 150.164 134.586 150.366 135.665 149.352C136.4 148.659 137.2 148.023 138.059 147.45C138.958 146.818 139.864 146.736 139.82 145.744C139.777 144.752 140.229 144.714 139.82 144.24L137.619 141.678ZM100.594 112.296L98.355 114.16C97.9708 114.484 97.5177 114.738 97.0217 114.908C96.5256 115.078 95.9963 115.16 95.4641 115.15C94.9318 115.14 94.4071 115.038 93.9198 114.849C93.4326 114.661 92.9925 114.39 92.6246 114.051C91.9845 113.481 91.5526 112.756 91.3842 111.969L90.3423 107.152C90.2126 106.568 90.228 105.967 90.3875 105.389C90.547 104.812 90.8468 104.271 91.2664 103.805L94.082 100.72C94.416 100.342 94.8335 100.026 95.3096 99.7929C95.7856 99.5594 96.3104 99.4129 96.8524 99.362C97.3945 99.3111 97.9426 99.3569 98.464 99.4967C98.9854 99.6364 99.4694 99.8673 99.8869 100.175L99.9613 100.23C100.446 100.586 100.842 101.027 101.124 101.524C101.405 102.021 101.567 102.564 101.599 103.118L101.983 109.114C102.027 109.701 101.926 110.289 101.686 110.839C101.446 111.388 101.073 111.886 100.594 112.296ZM119.968 105.544L119.249 113.55C119.22 114.129 119.017 114.692 118.659 115.179C118.302 115.667 117.803 116.062 117.215 116.324L115.453 117.022C113.977 117.605 112.352 116.945 111.67 115.49L111.335 114.716C111.285 114.608 111.242 114.497 111.205 114.384L109.475 109.244C109.311 108.732 109.271 108.196 109.357 107.669L110.095 103.271C110.212 102.424 110.686 101.647 111.422 101.091C112.576 100.246 114.337 99.1016 115.205 99.227C116.446 99.4123 118.405 101.952 119.429 103.369C119.871 104.024 120.061 104.787 119.968 105.544Z" fill="black"/>
</g>
<defs>
<clipPath id="clip0_451_3">
<rect width="82" height="78" fill="white" transform="translate(58 65)"/>
</clipPath>
</defs>
</svg>
