<svg width="74" height="142" viewBox="0 0 74 142" fill="none" xmlns="http://www.w3.org/2000/svg">
<path d="M72.5727 140.801H1.5278L1.5278 34.808H72.5727V140.801Z" fill="#5CA291"/>
<path d="M5.80945 40.6416L5.80945 140.658H1.39594L1.39594 35.093H72.7239V140.658H68.0257V40.6416H5.80945Z" fill="#C42E2E"/>
<path fill-rule="evenodd" clip-rule="evenodd" d="M1.39623 35.0937H72.7044C72.2536 15.6347 56.4633 0 37.0503 0C17.6374 0 1.84709 15.6347 1.39623 35.0937Z" fill="#C42E2E"/>
<path opacity="0.7" fill-rule="evenodd" clip-rule="evenodd" d="M67.9021 35.0937H5.91465C6.30649 18.4823 20.0328 5.1355 36.9084 5.1355C53.7839 5.1355 67.5102 18.4823 67.9021 35.0937Z" fill="#BBECC0" fill-opacity="0.74"/>
<path d="M37.0505 78.1753V59.63L12.4254 78.1753H37.0505Z" fill="#E68B77"/>
<path d="M37.0501 78.1753V59.63L61.6752 78.1753H37.0501Z" fill="#85C6AE"/>
<path d="M37.0501 78.1754V96.7206L61.6752 78.1754H37.0501Z" fill="#E68B77"/>
<path d="M37.0505 78.1754V96.7206L12.4254 78.1754H37.0505Z" fill="#85C6AE"/>
<rect x="26.8608" y="67.3335" width="20.3794" height="21.6837" fill="#F4D175"/>
<path d="M37.0603 40.5142V59.6301H61.9685V40.5142H37.0603Z" fill="#E68B77"/>
<path d="M37.0603 96.7206V115.837H12.1521V96.7206H37.0603Z" fill="#E68B77"/>
<path d="M12.152 40.5142V59.6301H37.0601V40.5142H12.152Z" fill="#CEAADF"/>
<path d="M61.968 96.7206V115.837H37.0598V96.7206H61.968Z" fill="#CEAADF"/>
<path d="M72.8669 140.801H1.25365L1.25365 34.808H72.8669V140.801Z" stroke="black"/>
<path d="M5.67598 40.5139L5.67598 140.801H1.25365L1.25365 34.9503H72.7243V140.801H68.0166V40.5139H5.67598Z" stroke="black"/>
<path d="M62.1679 134.381H11.953L11.953 40.5139H62.1679V134.381Z" stroke="black"/>
<mask id="path-17-inside-1_250_206" fill="white">
<path fill-rule="evenodd" clip-rule="evenodd" d="M1.12134 35.0937H73C72.5455 15.6347 56.6289 0 37.0607 0C17.4924 0 1.5758 15.6347 1.12134 35.0937Z"/>
</mask>
<path d="M1.12134 35.0937L0.121611 35.0704L0.0977102 36.0937H1.12134L1.12134 35.0937ZM73 35.0937V36.0937H74.0236L73.9997 35.0704L73 35.0937ZM1.12134 36.0937H73V34.0937H1.12134L1.12134 36.0937ZM37.0607 1C56.0845 1 71.5584 16.1998 72.0003 35.1171L73.9997 35.0704C73.5326 15.0696 57.1734 -1 37.0607 -1V1ZM2.12107 35.1171C2.56288 16.1998 18.0369 1 37.0607 1V-1C16.9479 -1 0.588728 15.0696 0.121611 35.0704L2.12107 35.1171Z" fill="black" mask="url(#path-17-inside-1_250_206)"/>
<mask id="path-19-inside-2_250_206" fill="white">
<path fill-rule="evenodd" clip-rule="evenodd" d="M68.1589 35.0941H5.67558C6.07056 18.4827 19.9067 5.13586 36.9172 5.13586C53.9278 5.13586 67.7639 18.4827 68.1589 35.0941Z"/>
</mask>
<path d="M5.67558 35.0941L4.67586 35.0703L4.65151 36.0941H5.67558V35.0941ZM68.1589 35.0941V36.0941H69.183L69.1586 35.0703L68.1589 35.0941ZM5.67558 36.0941H68.1589V34.0941H5.67558V36.0941ZM6.67529 35.1179C7.057 19.0645 20.4344 6.13586 36.9172 6.13586V4.13586C19.379 4.13586 5.08411 17.9009 4.67586 35.0703L6.67529 35.1179ZM36.9172 6.13586C53.4 6.13586 66.7775 19.0645 67.1592 35.1179L69.1586 35.0703C68.7504 17.9009 54.4555 4.13586 36.9172 4.13586V6.13586Z" fill="black" mask="url(#path-19-inside-2_250_206)"/>
<path d="M5.67584 140.802L11.9527 134.382" stroke="black"/>
<path d="M67.8742 140.659L62.1679 134.382" stroke="black"/>
<path d="M5.67584 103.14L11.9527 96.7206" stroke="black"/>
<path d="M68.1595 102.998L62.1679 96.7206" stroke="black"/>
<path d="M5.67584 121.685L11.9527 115.265" stroke="black"/>
<path d="M68.1595 121.542L62.1679 115.265" stroke="black"/>
<path d="M5.67584 84.5954L11.9527 78.1759" stroke="black"/>
<path d="M68.1595 84.7381L62.1679 78.1759" stroke="black"/>
<path d="M5.67584 66.0499L11.9527 59.6304" stroke="black"/>
<path d="M68.1595 66.1925L62.1679 59.6304" stroke="black"/>
<path d="M11.953 59.6304H62.1679" stroke="black"/>
<path d="M11.953 78.1759H62.1679" stroke="black"/>
<path d="M11.953 96.7206H62.1679" stroke="black"/>
<path d="M11.953 115.265H62.1679" stroke="black"/>
<path d="M37.0603 40.5139V134.239" stroke="black"/>
<path d="M37.0605 78.1756V59.6304L12.2384 78.1756H37.0605Z" stroke="black"/>
<path d="M37.0602 78.1756V59.6304L61.8823 78.1756H37.0602Z" stroke="black"/>
<path d="M37.0602 78.1754V96.7206L61.8823 78.1754H37.0602Z" stroke="black"/>
<path d="M37.0605 78.1754V96.7206L12.2384 78.1754H37.0605Z" stroke="black"/>
<rect x="27.2893" y="67.8335" width="19.5425" height="20.6837" stroke="black"/>
</svg>
