<svg width="96" height="186" viewBox="0 0 96 186" fill="none" xmlns="http://www.w3.org/2000/svg">
<path d="M94.6627 184.571H1.53281L1.53281 45.6284H94.6627V184.571Z" fill="#CD6D6D"/>
<path d="M7.14545 53.2754L7.14545 184.383H1.35996L1.35996 46.002H94.8609V184.383H88.7021V53.2754H7.14545Z" fill="#7E8E81"/>
<path fill-rule="evenodd" clip-rule="evenodd" d="M1.36025 46.0029H94.8352C94.2442 20.4949 73.5454 0 48.0977 0C22.6501 0 1.95126 20.4949 1.36025 46.0029Z" fill="#7E8E81"/>
<path opacity="0.7" fill-rule="evenodd" clip-rule="evenodd" d="M88.5401 46.0029H7.28335C7.797 24.2277 25.7903 6.73193 47.9117 6.73193C70.0332 6.73193 88.0265 24.2277 88.5401 46.0029Z" fill="#E7AB98"/>
<path d="M48.098 102.477V78.1665L15.818 102.477H48.098Z" fill="#E7AB98"/>
<path d="M48.0975 102.477V78.1665L80.3775 102.477H48.0975Z" fill="#F9D185"/>
<path d="M48.0975 102.477V126.787L80.3775 102.477H48.0975Z" fill="#E7AB98"/>
<path d="M48.098 102.477V126.787L15.818 102.477H48.098Z" fill="#F9D185"/>
<rect x="34.7408" y="88.2646" width="26.7145" height="28.4243" fill="#B4C6F4"/>
<path d="M48.1109 53.1084V78.1666H80.762V53.1084H48.1109Z" fill="#E7AB98"/>
<path d="M48.1109 126.787V151.845H15.4598V126.787H48.1109Z" fill="#E7AB98"/>
<path d="M15.4596 53.1084V78.1666H48.1107V53.1084H15.4596Z" fill="#FFE3E3"/>
<path d="M80.7613 126.787V151.845H48.1102V126.787H80.7613Z" fill="#FFE3E3"/>
<path d="M95.0483 184.571H1.17344L1.17344 45.6284H95.0483V184.571Z" stroke="black"/>
<path d="M6.97049 53.108L6.97049 184.57H1.17344L1.17344 45.8149H94.8613V184.57H88.6903V53.108H6.97049Z" stroke="black"/>
<path d="M81.0235 176.155H15.1988L15.1988 53.1079H81.0235V176.155Z" stroke="black"/>
<mask id="path-17-inside-1_184_283" fill="white">
<path fill-rule="evenodd" clip-rule="evenodd" d="M95.2227 46.0029H1C1.59574 20.4949 22.4601 0 48.1114 0C73.7626 0 94.627 20.4949 95.2227 46.0029Z"/>
</mask>
<path d="M1 46.0029L0.000272632 45.9796L-0.0236276 47.0029H1V46.0029ZM95.2227 46.0029V47.0029H96.2464L96.2225 45.9796L95.2227 46.0029ZM1 47.0029H95.2227V45.0029H1V47.0029ZM1.99973 46.0263C2.58281 21.06 23.0046 1 48.1114 1V-1C21.9157 -1 0.608663 19.9298 0.000272632 45.9796L1.99973 46.0263ZM48.1114 1C73.2181 1 93.6399 21.06 94.223 46.0263L96.2225 45.9796C95.6141 19.9298 74.3071 -1 48.1114 -1V1Z" fill="black" mask="url(#path-17-inside-1_184_283)"/>
<mask id="path-19-inside-2_184_283" fill="white">
<path fill-rule="evenodd" clip-rule="evenodd" d="M88.8768 46.0034H6.96996C7.48773 24.2282 25.625 6.73242 47.9234 6.73242C70.2218 6.73242 88.359 24.2282 88.8768 46.0034Z"/>
</mask>
<path d="M6.96996 46.0034L5.97025 45.9796L5.9459 47.0034H6.96996V46.0034ZM88.8768 46.0034V47.0034H89.9009L89.8765 45.9796L88.8768 46.0034ZM6.96996 47.0034H88.8768V45.0034H6.96996V47.0034ZM7.96968 46.0272C8.47418 24.81 26.1527 7.73242 47.9234 7.73242V5.73242C25.0972 5.73242 6.50128 23.6464 5.97025 45.9796L7.96968 46.0272ZM47.9234 7.73242C69.6941 7.73242 87.3726 24.81 87.8771 46.0272L89.8765 45.9796C89.3455 23.6464 70.7495 5.73242 47.9234 5.73242V7.73242Z" fill="black" mask="url(#path-19-inside-2_184_283)"/>
<path d="M6.97031 184.571L15.1984 176.156" stroke="black"/>
<path d="M88.5035 184.384L81.0234 176.156" stroke="black"/>
<path d="M6.97031 135.202L15.1984 126.787" stroke="black"/>
<path d="M88.8775 135.015L81.0235 126.787" stroke="black"/>
<path d="M6.97031 159.512L15.1984 151.097" stroke="black"/>
<path d="M88.8775 159.325L81.0235 151.097" stroke="black"/>
<path d="M6.97031 110.893L15.1984 102.478" stroke="black"/>
<path d="M88.8775 111.08L81.0235 102.478" stroke="black"/>
<path d="M6.97031 86.5821L15.1984 78.167" stroke="black"/>
<path d="M88.8775 86.7691L81.0235 78.167" stroke="black"/>
<path d="M15.1988 78.167H81.0235" stroke="black"/>
<path d="M15.1988 102.478H81.0235" stroke="black"/>
<path d="M15.1988 126.787H81.0235" stroke="black"/>
<path d="M15.1988 151.097H81.0235" stroke="black"/>
<path d="M48.1109 53.1079V175.968" stroke="black"/>
<path d="M48.1112 102.477V78.167L15.5729 102.477H48.1112Z" stroke="black"/>
<path d="M48.1107 102.477V78.167L80.649 102.477H48.1107Z" stroke="black"/>
<path d="M48.1107 102.477V126.787L80.649 102.477H48.1107Z" stroke="black"/>
<path d="M48.1112 102.477V126.787L15.5729 102.477H48.1112Z" stroke="black"/>
<rect x="35.1471" y="88.7646" width="25.9283" height="27.4243" stroke="black"/>
</svg>
