<svg width="74" height="141" viewBox="0 0 74 141" fill="none" xmlns="http://www.w3.org/2000/svg">
<path d="M72.4736 140.365H1.64874V34.7004H72.4736V140.365Z" fill="#A6C2AC"/>
<path d="M5.91748 40.516V140.223H1.51764V34.9846H72.6247V140.223H67.941V40.516H5.91748Z" fill="#CEAADF"/>
<path fill-rule="evenodd" clip-rule="evenodd" d="M1.51779 34.985H72.6051C72.1556 15.5863 56.4143 0 37.0615 0C17.7086 0 1.9673 15.5863 1.51779 34.985Z" fill="#CEAADF"/>
<path opacity="0.7" fill-rule="evenodd" clip-rule="evenodd" d="M67.8176 34.9853H6.02214C6.41275 18.4254 20.0966 5.11987 36.9199 5.11987C53.7432 5.11987 67.427 18.4254 67.8176 34.9853Z" fill="#FFC58F"/>
<path d="M37.0609 77.9335V59.4456L12.512 77.9335H37.0609Z" fill="#BAC9FF"/>
<path d="M37.061 77.9335V59.4456L61.6099 77.9335H37.061Z" fill="#99BAA6"/>
<path d="M37.061 77.9334V96.4212L61.6099 77.9334H37.061Z" fill="#BAC9FF"/>
<path d="M37.0609 77.9334V96.4212L12.512 77.9334H37.0609Z" fill="#99BAA6"/>
<rect x="26.9035" y="67.1249" width="20.3163" height="21.6166" fill="#F0BDA7"/>
<path d="M37.071 40.389V59.4457H61.9021V40.389H37.071Z" fill="#BAC9FF"/>
<path d="M37.071 96.4212V115.478H12.24V96.4212H37.071Z" fill="#BAC9FF"/>
<path d="M12.2401 40.389V59.4457H37.0712V40.389H12.2401Z" fill="#5CA191"/>
<path d="M61.9027 96.4212V115.478H37.0716V96.4212H61.9027Z" fill="#5CA191"/>
<path d="M72.7676 140.365H1.37607V34.7004H72.7676V140.365Z" stroke="black"/>
<path d="M5.78471 40.3886V140.365H1.37607V34.8423H72.6254V140.365H67.9323V40.3886H5.78471Z" stroke="black"/>
<path d="M62.1013 133.966H12.0419V40.389H62.1013V133.966Z" stroke="black"/>
<mask id="path-17-inside-1_250_528" fill="white">
<path fill-rule="evenodd" clip-rule="evenodd" d="M72.8997 34.985H1.24371C1.69681 15.5863 17.5641 0 37.0717 0C56.5794 0 72.4466 15.5863 72.8997 34.985Z"/>
</mask>
<path d="M1.24371 34.985L0.243986 34.9616L0.220083 35.985H1.24371V34.985ZM72.8997 34.985V35.985H73.9234L73.8995 34.9616L72.8997 34.985ZM1.24371 35.985H72.8997V33.985H1.24371V35.985ZM2.24344 35.0083C2.68389 16.1514 18.1086 1 37.0717 1V-1C17.0196 -1 0.70974 15.0211 0.243986 34.9616L2.24344 35.0083ZM37.0717 1C56.0349 1 71.4596 16.1514 71.9 35.0083L73.8995 34.9616C73.4337 15.0211 57.1238 -1 37.0717 -1V1Z" fill="black" mask="url(#path-17-inside-1_250_528)"/>
<mask id="path-19-inside-2_250_528" fill="white">
<path fill-rule="evenodd" clip-rule="evenodd" d="M68.0744 34.9853H5.78455C6.17828 18.4254 19.9716 5.11987 36.9295 5.11987C53.8873 5.11987 67.6806 18.4254 68.0744 34.9853Z"/>
</mask>
<path d="M5.78455 34.9853L4.78483 34.9616L4.76049 35.9853H5.78455V34.9853ZM68.0744 34.9853V35.9853H69.0984L69.0741 34.9616L68.0744 34.9853ZM5.78455 35.9853H68.0744V33.9853H5.78455V35.9853ZM6.78426 35.0091C7.16473 19.0071 20.4993 6.11987 36.9295 6.11987V4.11987C19.4439 4.11987 5.19183 17.8436 4.78483 34.9616L6.78426 35.0091ZM36.9295 6.11987C53.3596 6.11987 66.6942 19.0071 67.0746 35.0091L69.0741 34.9616C68.6671 17.8436 54.4151 4.11987 36.9295 4.11987V6.11987Z" fill="black" mask="url(#path-19-inside-2_250_528)"/>
<path d="M5.78485 140.366L12.0423 133.966" stroke="black"/>
<path d="M67.7895 140.224L62.1009 133.966" stroke="black"/>
<path d="M5.78485 102.821L12.0423 96.4212" stroke="black"/>
<path d="M68.074 102.679L62.101 96.4212" stroke="black"/>
<path d="M5.78485 121.308L12.0423 114.909" stroke="black"/>
<path d="M68.074 121.166L62.101 114.909" stroke="black"/>
<path d="M5.78485 84.3334L12.0423 77.9338" stroke="black"/>
<path d="M68.074 84.4756L62.101 77.9338" stroke="black"/>
<path d="M5.78485 65.8456L12.0423 59.446" stroke="black"/>
<path d="M68.074 65.9875L62.101 59.4456" stroke="black"/>
<path d="M12.0419 59.446H62.1013" stroke="black"/>
<path d="M12.0419 77.9338H62.1013" stroke="black"/>
<path d="M12.0419 96.4212H62.1013" stroke="black"/>
<path d="M12.0419 114.909H62.1013" stroke="black"/>
<path d="M37.0717 40.389V133.824" stroke="black"/>
<path d="M37.0718 77.9338V59.446L12.3265 77.9338H37.0718Z" stroke="black"/>
<path d="M37.0717 77.9338V59.446L61.817 77.9338H37.0717Z" stroke="black"/>
<path d="M37.0717 77.9334V96.4212L61.817 77.9334H37.0717Z" stroke="black"/>
<path d="M37.0718 77.9334V96.4212L12.3265 77.9334H37.0718Z" stroke="black"/>
<rect x="27.3327" y="67.6249" width="19.4788" height="20.6166" stroke="black"/>
</svg>
